[CENTER][IMG]http://makeagif.com/media/9-20-2011/9qDvdz.gif[/IMG]

[IMG]http://imedia.cinebasti.com/cb/galery_movies/medium/Force_movie_poster.jpg[/IMG][/CENTER]

[QUOTE]Format : Matroska
File size : 696 MiB
Duration : 2h 8mn
Overall bit rate : 759 Kbps
Encoded date : UTC 2011-10-01 19:03:04
Writing application : mkvmerge v4.9.1 (\'Ich will\') built on Jul 11 2011 23:53:15
Writing library : libebml v1.2.1 + libmatroska v1.1.1

Video
ID : 1
Format : AVC
Format/Info : Advanced Video Codec
Format profile : High@L2.1
Format settings, CABAC : Yes
Format settings, ReFrames : 4 frames
Format settings, GOP : N=1
Muxing mode : Header stripping
Codec ID : V_MPEG4/ISO/AVC
Duration : 2h 8mn
Bit rate : 695 Kbps
Width : 640 pixels
Height : 288 pixels
Display aspect ratio : 2.222
Frame rate : 25.000 fps
Color space : YUV
Chroma subsampling : 4:2:0
Bit depth : 8 bits
Scan type : Progressive
Bits/(Pixel*Frame) : 0.151
Stream size : 623 MiB (90%)
Writing library : x264 core 116 r2074 2641b9e

Audio
ID : 2
Format : MPEG Audio
Format version : Version 2
Format profile : Layer 3
Mode : Joint stereo
Mode extension : MS Stereo
Muxing mode : Header stripping
Codec ID : A_MPEG/L3
Codec ID/Hint : MP3
Duration : 2h 8mn
Bit rate mode : Constant
Bit rate : 64.0 Kbps
Channel(s) : 2 channels
Sampling rate : 24.0 KHz
Compression mode : Lossy
Delay relative to video : 20ms
Stream size : 58.7 MiB (8%)
Writing library : LAME3.98.3[/QUOTE]
